HIERARCHY
ROOT Hips
{
	OFFSET 0.000000 0.000000 0.000000
	CHANNELS 6 Xposition Yposition Zposition Xrotation Yrotation Zrotation
	JOINT LeftUpLeg_virtual
	{
		OFFSET 0.000000 0.000000 0.000000
		CHANNELS 3 Xrotation Yrotation Zrotation
		JOINT LeftUpLeg
		{
			OFFSET 13.026900 -6.336304 -1.092800
			CHANNELS 3 Xrotation Yrotation Zrotation
			JOINT LeftLeg
			{
				OFFSET 0.524474 -46.096886 9.782700
				CHANNELS 3 Xrotation Yrotation Zrotation
				JOINT LeftFoot
				{
					OFFSET -0.524474 -53.427422 -12.948200
					CHANNELS 3 Xrotation Yrotation Zrotation
					JOINT LeftToeBase
					{
						OFFSET 0.192200 -14.009700 16.364100
						CHANNELS 3 Xrotation Yrotation Zrotation
						JOINT LeftToe_End
						{
							OFFSET -1.784700 -0.561700 9.474800
							CHANNELS 3 Xrotation Yrotation Zrotation
							End Site
							{
								OFFSET 0 0 0
							}
						}
					}
				}
			}
		}
	}
	JOINT RightUpLeg_virtual
	{
		OFFSET 0.000000 0.000000 0.000000
		CHANNELS 3 Xrotation Yrotation Zrotation
		JOINT RightUpLeg
		{
			OFFSET -12.883000 -6.336304 -1.092800
			CHANNELS 3 Xrotation Yrotation Zrotation
			JOINT RightLeg
			{
				OFFSET -0.524587 -46.096825 9.782800
				CHANNELS 3 Xrotation Yrotation Zrotation
				JOINT RightFoot
				{
					OFFSET 0.524587 -53.427383 -12.948300
					CHANNELS 3 Xrotation Yrotation Zrotation
					JOINT RightToeBase
					{
						OFFSET -0.192200 -14.009700 16.364100
						CHANNELS 3 Xrotation Yrotation Zrotation
						JOINT RightToe_End
						{
							OFFSET 1.784700 -0.561700 9.474800
							CHANNELS 3 Xrotation Yrotation Zrotation
							End Site
							{
								OFFSET 0 0 0
							}
						}
					}
				}
			}
		}
	}
	JOINT Spine_virtual
	{
		OFFSET 0.000000 0.000000 0.000000
		CHANNELS 3 Xrotation Yrotation Zrotation
		JOINT Spine
		{
			OFFSET 0.072000 7.257294 -0.789700
			CHANNELS 3 Xrotation Yrotation Zrotation
			JOINT Spine1
			{
				OFFSET 0.000000 12.508769 -0.658067
				CHANNELS 3 Xrotation Yrotation Zrotation
				JOINT Spine1_split
				{
					OFFSET 0.000000 12.508769 -0.658067
					CHANNELS 3 Xrotation Yrotation Zrotation
					JOINT Spine2
					{
						OFFSET 0.000000 12.508769 -0.658067
						CHANNELS 3 Xrotation Yrotation Zrotation
						JOINT Neck_virtual
						{
							OFFSET 0.000000 0.000000 0.000000
							CHANNELS 3 Xrotation Yrotation Zrotation
							JOINT Neck
							{
								OFFSET 0.000000 14.033295 7.520400
								CHANNELS 3 Xrotation Yrotation Zrotation
								JOINT Head
								{
									OFFSET 0.000000 8.198502 5.703100
									CHANNELS 3 Xrotation Yrotation Zrotation
									JOINT HeadTop_End
									{
										OFFSET 0.000000 17.760803 13.332701
										CHANNELS 3 Xrotation Yrotation Zrotation
										End Site
										{
											OFFSET 0 0 0
										}
									}
								}
							}
						}
						JOINT LeftShoulder_virtual
						{
							OFFSET 0.000000 0.000000 0.000000
							CHANNELS 3 Xrotation Yrotation Zrotation
							JOINT LeftShoulder
							{
								OFFSET 6.292450 5.785301 -0.669000
								CHANNELS 3 Xrotation Yrotation Zrotation
								JOINT LeftShoulder_split
								{
									OFFSET 6.292450 5.785301 -0.669000
									CHANNELS 3 Xrotation Yrotation Zrotation
									JOINT LeftArm
									{
										OFFSET 13.907140 -6.093903 1.965100
										CHANNELS 3 Xrotation Yrotation Zrotation
										JOINT LeftForeArm
										{
											OFFSET 34.140198 0.000000 0.000000
											CHANNELS 3 Xrotation Yrotation Zrotation
											JOINT LeftHand
											{
												OFFSET 40.960209 0.000000 0.000000
												CHANNELS 3 Xrotation Yrotation Zrotation
												End Site
												{
													OFFSET 0 0 0
												}
											}
										}
									}
								}
							}
						}
						JOINT RightShoulder_virtual
						{
							OFFSET 0.000000 0.000000 0.000000
							CHANNELS 3 Xrotation Yrotation Zrotation
							JOINT RightShoulder
							{
								OFFSET -6.292450 5.785301 -0.669000
								CHANNELS 3 Xrotation Yrotation Zrotation
								JOINT RightShoulder_split
								{
									OFFSET -6.292450 5.785301 -0.669000
									CHANNELS 3 Xrotation Yrotation Zrotation
									JOINT RightArm
									{
										OFFSET -13.907140 -6.093903 1.965100
										CHANNELS 3 Xrotation Yrotation Zrotation
										JOINT RightForeArm
										{
											OFFSET -34.140198 0.000000 0.000000
											CHANNELS 3 Xrotation Yrotation Zrotation
											JOINT RightHand
											{
												OFFSET -40.960209 0.000000 0.000000
												CHANNELS 3 Xrotation Yrotation Zrotation
												End Site
												{
													OFFSET 0 0 0
												}
											}
										}
									}
								}
							}
						}
					}
				}
			}
		}
	}
}
MOTION
Frames: 5
Frame Time: 0.03333333
3.169438 103.481873 0.944771 0.000000 0.000000 0.000000 8.492263 -67.862574 10.268419 -35.639169 11.317068 22.116870 33.187473 -6.762418 0.693183 -2.713875 -2.685894 -14.267966 0.385952 0.048494 0.396009 0.000000 0.000000 0.000000 6.098938 -66.748345 8.647861 -25.921109 -12.221859 -27.531709 26.029699 -3.031983 -2.099580 -1.902429 -3.131418 22.679524 -3.447503 -0.046836 -0.356114 0.000000 0.000000 0.000000 2.594575 -64.627933 5.649332 16.648361 0.561346 -3.960126 4.578866 0.842804 -2.639184 0.415686 2.467671 0.461159 0.000000 0.000000 0.000000 4.122021 0.585960 -2.619859 -4.811365 2.905716 2.965148 -15.415348 52.331072 -3.551522 0.000000 0.000000 0.000000 4.692503 0.207928 -2.727185 2.635031 -3.192107 -11.093830 -3.140878 -5.855666 1.504030 -38.187485 28.458287 -33.186708 3.187440 -42.993056 4.480749 0.000000 0.000000 0.000000 5.286799 0.684163 -2.366810 1.742210 5.791242 9.497531 4.303895 4.794390 0.494041 4.502905 -9.675813 55.278603 -20.527503 35.170355 13.508363 0.000000 0.000000 0.000000 
2.595729 104.125366 3.062843 0.000000 0.000000 0.000000 7.867832 -68.209261 9.594281 -35.702884 12.163917 22.249066 33.688764 -6.650321 0.866743 -2.615642 -2.338842 -14.608315 0.060119 -0.029482 0.623726 0.000000 0.000000 0.000000 7.323781 -67.718641 9.316685 -25.439535 -11.640825 -27.202798 26.727925 -3.252815 -2.025237 -0.818222 -3.420313 22.080545 -3.598574 -0.230752 0.031749 0.000000 0.000000 0.000000 3.747725 -65.110117 6.235428 16.474689 0.403926 -3.879271 4.519929 0.701860 -2.571386 0.272565 2.504497 0.427543 0.000000 0.000000 0.000000 3.823014 0.502682 -2.582017 -5.045664 3.059141 2.514488 -14.566924 52.282260 -4.172395 0.000000 0.000000 0.000000 4.590753 0.062150 -2.692551 2.670415 -3.670549 -10.799474 -3.385203 -5.787396 1.709310 -39.087755 28.623851 -32.573305 3.105115 -43.967926 4.605921 0.000000 0.000000 0.000000 5.229550 0.645029 -2.327398 1.733801 6.331029 9.843544 3.736533 4.050492 0.133557 3.338236 -9.797619 54.705085 -20.028795 33.745861 12.992761 0.000000 0.000000 0.000000 
1.937778 104.738083 5.836472 0.000000 0.000000 0.000000 7.571450 -68.837665 9.125210 -35.358995 13.214846 22.172693 34.516313 -6.266372 0.891842 -3.356728 -1.569169 -14.035380 -0.556806 -0.094433 0.870050 0.000000 0.000000 0.000000 8.735046 -68.767301 10.113015 -25.276081 -10.068781 -26.653305 28.521917 -3.490844 -1.755843 -0.107483 -4.338606 21.312371 -4.287265 -0.396511 0.508524 0.000000 0.000000 0.000000 5.291996 -65.661464 7.098695 16.168969 0.225100 -3.709436 4.248872 0.325125 -2.417160 0.260361 2.461412 0.316485 0.000000 0.000000 0.000000 3.335396 0.131141 -2.401379 -5.093456 3.674569 1.963562 -13.646366 52.339432 -4.922240 0.000000 0.000000 0.000000 4.266245 -0.346544 -2.534876 2.694568 -4.162793 -10.652509 -3.531903 -5.347495 1.791883 -40.519291 28.502473 -31.585021 4.396713 -43.804957 5.707504 0.000000 0.000000 0.000000 4.894965 0.322807 -2.173305 1.809215 6.951598 10.210289 3.207323 3.412189 -0.089607 1.183831 -9.803645 53.800519 -18.956905 30.761874 11.871781 0.000000 0.000000 0.000000 
1.247545 104.921097 8.805813 0.000000 0.000000 0.000000 7.755016 -69.529700 9.012903 -34.991483 14.223148 21.948219 35.889202 -5.738942 0.808656 -4.928656 -0.600580 -12.618160 -1.057349 -0.136487 1.012951 0.000000 0.000000 0.000000 10.390835 -69.597859 11.148224 -25.751244 -7.828993 -25.861649 30.576264 -3.568303 -1.363837 -0.224598 -5.503543 20.537286 -4.903073 -0.476474 0.871447 0.000000 0.000000 0.000000 6.884456 -66.070360 8.024682 15.822570 0.008012 -3.478118 3.829493 -0.242296 -2.193619 0.332339 2.261240 0.270118 0.000000 0.000000 0.000000 2.772637 -0.469742 -2.114000 -4.938053 4.639249 1.385489 -12.903732 52.381749 -5.558643 0.000000 0.000000 0.000000 3.787807 -0.955375 -2.280818 2.712616 -4.630646 -10.667826 -3.712304 -4.665329 1.837340 -42.071469 27.974348 -30.573740 6.672157 -42.473586 7.479708 0.000000 0.000000 0.000000 4.378436 -0.247251 -1.946207 1.978591 7.498613 10.575997 2.870256 3.046138 -0.199395 -1.388959 -9.425038 52.973619 -17.698986 27.403525 10.587551 0.000000 0.000000 0.000000 
0.650842 104.482643 11.375515 0.000000 0.000000 0.000000 8.643725 -69.973656 9.495626 -35.187208 14.972519 21.704285 37.972092 -5.322640 0.709548 -7.078581 0.228638 -10.776233 -1.226871 -0.152320 1.013168 0.000000 0.000000 0.000000 12.168954 -69.877432 12.304572 -27.088663 -5.461864 -24.832095 32.659294 -3.463971 -0.899739 -1.488799 -6.578000 19.771980 -4.676800 -0.411064 0.980041 0.000000 0.000000 0.000000 8.685218 -66.322305 9.113498 15.466719 -0.244528 -3.196193 3.358928 -0.914224 -1.944141 0.403612 1.770862 0.307441 0.000000 0.000000 0.000000 2.247292 -1.195785 -1.791376 -4.691053 5.808009 0.797899 -12.709292 52.189441 -5.772105 0.000000 0.000000 0.000000 3.269357 -1.655588 -1.990791 2.721943 -5.039074 -10.715320 -3.890252 -4.018001 1.794429 -43.476599 26.803517 -29.771367 9.361806 -40.449992 9.516268 0.000000 0.000000 0.000000 3.796053 -0.971847 -1.701316 2.220394 7.825547 10.902600 2.641512 2.878138 -0.281438 -3.715609 -8.638671 52.544222 -16.488184 24.709847 9.398870 0.000000 0.000000 0.000000 
